<svg xmlns="http://www.w3.org/2000/svg" width="940" height="780" viewBox="0 0 940 780" role="img" aria-labelledby="title"><title id="title">同一份样本文档（标题、含加粗的正文、无序列表项）在 ProseMirror、Slate、Quill、Draft.js 四个编辑器里的文档模型表示</title><style>text{font-family:-apple-system,BlinkMacSystemFont,'Segoe UI','PingFang SC',sans-serif;fill:#182230}.t{font-size:14px;font-weight:700}.h{font-size:13px;font-weight:700}.b{font-size:12px;fill:#334155}.n{font-size:12px;fill:#526176}.s{font-size:11px;fill:#334155}.o{font-size:11px;font-weight:700}</style><rect width="940" height="780" rx="18" fill="#f8fafc"/><text x="40" y="34" class="t">同一份文档在四个编辑器里的表示：schema 约束树、自由嵌套树、扁平 delta、扁平块列表</text><rect x="40" y="56" width="420" height="344" rx="10" fill="#ffffff" stroke="#cbd5e1" stroke-width="1.5"/><text x="56" y="84" class="h">ProseMirror：schema 约束树</text><rect x="215" y="96" width="90" height="30" rx="6" fill="#e0f2fe" stroke="#0891b2" stroke-width="1.5"/><text x="248" y="115" class="b">doc</text><line x1="260" y1="126" x2="110" y2="146" stroke="#94a3b8" stroke-width="1.5"/><line x1="260" y1="126" x2="232" y2="146" stroke="#94a3b8" stroke-width="1.5"/><line x1="260" y1="126" x2="371" y2="146" stroke="#94a3b8" stroke-width="1.5"/><rect x="60" y="146" width="100" height="30" rx="6" fill="#e0f2fe" stroke="#0891b2" stroke-width="1.5"/><text x="76" y="165" class="b">heading</text><rect x="182" y="146" width="100" height="30" rx="6" fill="#e0f2fe" stroke="#0891b2" stroke-width="1.5"/><text x="192" y="165" class="b">paragraph</text><rect x="316" y="146" width="110" height="30" rx="6" fill="#e0f2fe" stroke="#0891b2" stroke-width="1.5"/><text x="328" y="165" class="b">bullet_list</text><line x1="110" y1="176" x2="110" y2="196" stroke="#94a3b8" stroke-width="1.5"/><rect x="60" y="196" width="100" height="30" rx="6" fill="#ffffff" stroke="#94a3b8" stroke-width="1.5"/><text x="70" y="215" class="s">text "月报"</text><line x1="232" y1="176" x2="192" y2="196" stroke="#94a3b8" stroke-width="1.5"/><line x1="232" y1="176" x2="268" y2="196" stroke="#94a3b8" stroke-width="1.5"/><rect x="160" y="196" width="64" height="30" rx="6" fill="#ffffff" stroke="#94a3b8" stroke-width="1.5"/><text x="178" y="215" class="s">"本月"</text><rect x="236" y="196" width="64" height="30" rx="6" fill="#ffffff" stroke="#94a3b8" stroke-width="1.5"/><text x="254" y="215" class="s">"发布"</text><line x1="268" y1="226" x2="268" y2="236" stroke="#d97706" stroke-width="1.5" stroke-dasharray="3 2"/><rect x="224" y="236" width="88" height="20" rx="4" fill="#fef3c7" stroke="#d97706" stroke-width="1.5"/><text x="234" y="250" class="s" fill="#92400e">mark: bold</text><line x1="371" y1="176" x2="371" y2="196" stroke="#94a3b8" stroke-width="1.5"/><rect x="316" y="196" width="110" height="30" rx="6" fill="#e0f2fe" stroke="#0891b2" stroke-width="1.5"/><text x="330" y="215" class="b">list_item</text><line x1="371" y1="226" x2="371" y2="262" stroke="#94a3b8" stroke-width="1.5"/><rect x="316" y="262" width="110" height="30" rx="6" fill="#e0f2fe" stroke="#0891b2" stroke-width="1.5"/><text x="326" y="281" class="b">paragraph</text><line x1="371" y1="292" x2="371" y2="306" stroke="#94a3b8" stroke-width="1.5"/><rect x="316" y="306" width="110" height="30" rx="6" fill="#ffffff" stroke="#94a3b8" stroke-width="1.5"/><text x="324" y="325" class="s">text "修 bug"</text><text x="56" y="372" class="n">Mark 挂在文本节点上，不进树（第 5 篇）</text><text x="56" y="390" class="n">位置是全文扁平整数 pos（第 7 篇）</text><rect x="480" y="56" width="420" height="344" rx="10" fill="#ffffff" stroke="#cbd5e1" stroke-width="1.5"/><text x="496" y="84" class="h">Slate：自由嵌套树</text><rect x="655" y="96" width="90" height="30" rx="6" fill="#ede9fe" stroke="#7c3aed" stroke-width="1.5"/><text x="672" y="115" class="b">editor</text><line x1="700" y1="126" x2="556" y2="146" stroke="#94a3b8" stroke-width="1.5"/><line x1="700" y1="126" x2="694" y2="146" stroke="#94a3b8" stroke-width="1.5"/><line x1="700" y1="126" x2="832" y2="146" stroke="#94a3b8" stroke-width="1.5"/><rect x="500" y="146" width="112" height="30" rx="6" fill="#ede9fe" stroke="#7c3aed" stroke-width="1.5"/><text x="508" y="165" class="s">type "heading"</text><rect x="632" y="146" width="124" height="30" rx="6" fill="#ede9fe" stroke="#7c3aed" stroke-width="1.5"/><text x="640" y="165" class="s">type "paragraph"</text><rect x="768" y="146" width="128" height="30" rx="6" fill="#ede9fe" stroke="#7c3aed" stroke-width="1.5"/><text x="776" y="165" class="s">type "bullet-list"</text><line x1="556" y1="176" x2="556" y2="196" stroke="#94a3b8" stroke-width="1.5"/><rect x="500" y="196" width="112" height="30" rx="6" fill="#ffffff" stroke="#94a3b8" stroke-width="1.5"/><text x="508" y="215" class="s">{text: "月报"}</text><line x1="694" y1="176" x2="641" y2="196" stroke="#94a3b8" stroke-width="1.5"/><line x1="694" y1="176" x2="750" y2="196" stroke="#94a3b8" stroke-width="1.5"/><rect x="598" y="196" width="86" height="30" rx="6" fill="#ffffff" stroke="#94a3b8" stroke-width="1.5"/><text x="604" y="215" class="s">{text: "本月"}</text><rect x="690" y="196" width="120" height="30" rx="6" fill="#ffffff" stroke="#94a3b8" stroke-width="1.5"/><text x="696" y="215" class="s">{text: "发布", bold}</text><line x1="832" y1="176" x2="832" y2="196" stroke="#94a3b8" stroke-width="1.5"/><rect x="768" y="196" width="128" height="30" rx="6" fill="#ede9fe" stroke="#7c3aed" stroke-width="1.5"/><text x="774" y="215" class="s">type "list-item"</text><line x1="832" y1="226" x2="832" y2="246" stroke="#94a3b8" stroke-width="1.5"/><rect x="768" y="246" width="128" height="30" rx="6" fill="#ffffff" stroke="#94a3b8" stroke-width="1.5"/><text x="776" y="265" class="s">{text: "修 bug"}</text><text x="496" y="372" class="n">嵌套深度、type 名称与自定义字段都自由</text><text x="496" y="390" class="n">Mark 是文本对象上的普通字段；位置是 Path + offset</text><rect x="40" y="424" width="420" height="336" rx="10" fill="#ffffff" stroke="#cbd5e1" stroke-width="1.5"/><text x="56" y="452" class="h">Quill：扁平 delta 序列</text><line x1="48" y1="468" x2="48" y2="728" stroke="#059669" stroke-width="2"/><rect x="56" y="468" width="388" height="32" rx="6" fill="#ffffff" stroke="#94a3b8" stroke-width="1.5"/><text x="66" y="489" class="n">1</text><text x="84" y="489" class="b">insert "月报"</text><rect x="56" y="506" width="388" height="32" rx="6" fill="#d1fae5" stroke="#059669" stroke-width="1.5"/><text x="66" y="527" class="n">2</text><text x="84" y="527" class="b">insert "\n"</text><text x="436" y="527" text-anchor="end" class="o" fill="#059669">attributes {header: 1}</text><rect x="56" y="544" width="388" height="32" rx="6" fill="#ffffff" stroke="#94a3b8" stroke-width="1.5"/><text x="66" y="565" class="n">3</text><text x="84" y="565" class="b">insert "本月"</text><rect x="56" y="582" width="388" height="32" rx="6" fill="#fef3c7" stroke="#d97706" stroke-width="1.5"/><text x="66" y="603" class="n">4</text><text x="84" y="603" class="b">insert "发布"</text><text x="436" y="603" text-anchor="end" class="o" fill="#d97706">attributes {bold: true}</text><rect x="56" y="620" width="388" height="32" rx="6" fill="#ffffff" stroke="#94a3b8" stroke-width="1.5"/><text x="66" y="641" class="n">5</text><text x="84" y="641" class="b">insert "\n"</text><rect x="56" y="658" width="388" height="32" rx="6" fill="#ffffff" stroke="#94a3b8" stroke-width="1.5"/><text x="66" y="679" class="n">6</text><text x="84" y="679" class="b">insert "修 bug"</text><rect x="56" y="696" width="388" height="32" rx="6" fill="#d1fae5" stroke="#059669" stroke-width="1.5"/><text x="66" y="717" class="n">7</text><text x="84" y="717" class="b">insert "\n"</text><text x="436" y="717" text-anchor="end" class="o" fill="#059669">attributes {list: "bullet"}</text><text x="56" y="748" class="n">行级格式挂在换行符的 attributes 上；位置是单一整数 index</text><rect x="480" y="424" width="420" height="336" rx="10" fill="#ffffff" stroke="#cbd5e1" stroke-width="1.5"/><text x="496" y="452" class="h">Draft.js：扁平块列表 + 字符元数据</text><rect x="496" y="468" width="388" height="76" rx="8" fill="#ffffff" stroke="#d97706" stroke-width="1.5"/><text x="508" y="490" class="h">ContentBlock · type "header-one"</text><text x="508" y="510" class="b">text: "月报"</text><text x="508" y="528" class="n">characterList：每字符一份（style 集 + entityKey）</text><line x1="690" y1="544" x2="690" y2="556" stroke="#94a3b8" stroke-width="2"/><rect x="496" y="556" width="388" height="76" rx="8" fill="#ffffff" stroke="#d97706" stroke-width="1.5"/><text x="508" y="578" class="h">ContentBlock · type "unstyled"</text><text x="508" y="598" class="b">text: "本月发布"</text><text x="508" y="616" class="n">inlineStyleRanges: BOLD [2,4) · depth: 0</text><line x1="690" y1="632" x2="690" y2="644" stroke="#94a3b8" stroke-width="2"/><rect x="496" y="644" width="388" height="76" rx="8" fill="#ffffff" stroke="#d97706" stroke-width="1.5"/><text x="508" y="666" class="h">ContentBlock · type "unordered-list-item"</text><text x="508" y="686" class="b">text: "修 bug"</text><text x="508" y="704" class="n">depth 数值表达列表层级，块之间无父子关系</text><text x="496" y="748" class="n">格式存于每字符元数据，实体走 entityMap；位置是 block key + offset</text></svg>
